<svg id="barcode" width="266px" height="142px" x="0px" y="0px" viewBox="0 0 266 142" xmlns="http://www.w3.org/2000/svg" version="1.1" style="transform: translate(0px);"><rect x="0" y="0" width="266" height="142" style="fill:#ffffff;"/><g transform="translate(10, 10)" style="fill:#000000;"><rect x="0" y="0" width="4" height="100"/><rect x="6" y="0" width="2" height="100"/><rect x="12" y="0" width="6" height="100"/><rect x="22" y="0" width="2" height="100"/><rect x="28" y="0" width="4" height="100"/><rect x="36" y="0" width="6" height="100"/><rect x="44" y="0" width="6" height="100"/><rect x="54" y="0" width="4" height="100"/><rect x="62" y="0" width="2" height="100"/><rect x="66" y="0" width="2" height="100"/><rect x="72" y="0" width="4" height="100"/><rect x="80" y="0" width="6" height="100"/><rect x="88" y="0" width="6" height="100"/><rect x="98" y="0" width="4" height="100"/><rect x="104" y="0" width="2" height="100"/><rect x="110" y="0" width="4" height="100"/><rect x="118" y="0" width="2" height="100"/><rect x="128" y="0" width="2" height="100"/><rect x="132" y="0" width="4" height="100"/><rect x="140" y="0" width="2" height="100"/><rect x="150" y="0" width="2" height="100"/><rect x="154" y="0" width="2" height="100"/><rect x="160" y="0" width="6" height="100"/><rect x="170" y="0" width="4" height="100"/><rect x="176" y="0" width="4" height="100"/><rect x="184" y="0" width="4" height="100"/><rect x="192" y="0" width="4" height="100"/><rect x="198" y="0" width="2" height="100"/><rect x="204" y="0" width="2" height="100"/><rect x="212" y="0" width="4" height="100"/><rect x="220" y="0" width="4" height="100"/><rect x="230" y="0" width="6" height="100"/><rect x="238" y="0" width="2" height="100"/><rect x="242" y="0" width="4" height="100"/><text style="font: 20px monospace" text-anchor="middle" x="123" y="122">1429142861611702</text></g></svg>